<svg width="280" height="130" viewBox="0 0 280 130" fill="none" xmlns="http://www.w3.org/2000/svg">
<path d="M215 130C178.6 130 168.802 128.164 160.323 119.673C151.792 111.15 150 101.404 150 65C150 28.5963 151.836 18.8573 160.327 10.3266C168.817 1.79576 178.604 0 215 0C251.396 0 261.201 1.83616 269.681 10.3266C278.16 18.8169 280 28.6037 280 65C280 101.396 278.208 111.146 269.673 119.681C261.139 128.215 251.404 130 215 130Z" fill="black"/>
<path d="M240.503 64.1395C238.028 64.1395 236.394 62.5054 236.394 60.0816C236.394 57.713 238.028 56.0788 240.503 56.0788H246.981V64.1579L240.503 64.1395ZM252.409 51.3929H239.871C234.55 51.3929 230.914 54.8669 230.914 59.8723C230.914 63.8237 233.18 66.8277 236.764 67.878L229.916 78.311H235.971L242.137 68.8291H246.981V78.311H252.409V51.3929ZM184.559 58.4511V50.339H195.095V73.3681H181.874C183.296 70.8819 184.559 65.1384 184.559 58.4511ZM200.68 45.1243H179.186V58.6788C179.186 65.5791 177.974 70.9517 176.34 73.3681H173.77V85.6336H179.08V78.3624H199.211V85.6336H204.533V73.3681H200.68V45.1243ZM216.905 73.7353L216.431 73.4195L222.699 51.3856H210.004L208.635 56.2845L216.009 56.2294L211.212 73.0339C210.372 76.0893 212.424 78.9353 215.796 78.9353C216.96 78.9325 218.098 78.5835 219.064 77.9328L227.701 72.0864L225.068 68.1864L216.905 73.7353ZM220.577 46.3398C223.261 46.3398 224.37 45.341 224.37 42.9686C224.37 40.4935 223.21 39.4946 220.577 39.4946C217.944 39.4946 216.783 40.4935 216.783 42.9686C216.798 45.3336 217.903 46.3325 220.592 46.3325L220.577 46.3398Z" fill="white"/>
<path fill-rule="evenodd" clip-rule="evenodd" d="M11.882 11.8785L11.8785 11.882C7.152 16.5976 4.69173 22.632 3.4372 31.1765C2.17196 39.7939 2.16667 50.6889 2.16667 64.9882C2.16667 79.2875 2.17196 90.1825 3.43722 98.803C4.69175 107.35 7.15221 113.392 11.8802 118.12L11.882 118.122C16.5976 122.848 22.632 125.308 31.1765 126.563C39.7939 127.828 50.6889 127.833 64.9882 127.833C79.2875 127.833 90.1825 127.828 98.803 126.563C107.35 125.308 113.392 122.848 118.12 118.12C122.848 113.391 125.308 107.356 126.563 98.8117C127.828 90.1943 127.833 79.2994 127.833 64.9882C127.833 50.6771 127.828 39.7821 126.563 31.1647C125.308 22.6208 122.848 16.585 118.12 11.8566C113.392 7.14043 107.356 4.68591 98.8124 3.43436C90.1946 2.17194 79.2992 2.16667 64.9882 2.16667C50.677 2.16667 39.7822 2.17197 31.1677 3.43719C22.6268 4.69161 16.598 7.15167 11.882 11.8785ZM119.652 10.3246C130 20.6727 130 36.4896 130 64.9882C130 93.4869 130 109.304 119.652 119.652C109.304 130 93.4633 130 64.9882 130C36.5131 130 20.6727 130 10.3481 119.652C0 109.304 0 93.4633 0 64.9882C0 36.5131 0 20.6727 10.3481 10.3481C20.6727 0 36.4896 0 64.9882 0C93.4869 0 109.304 0 119.652 10.3246Z" fill="black"/>
<path d="M61.4337 106.073C56.8442 102.531 53.4595 97.2476 52.3695 91.0933H37.5684V26.3565C45.5426 30.3627 51.2221 39.2458 51.9105 48.4193L54.1479 66.592L53.0579 66.4178C50.6484 66.4178 48.5831 68.6822 48.5831 70.9465C48.5831 73.0366 50.1895 74.8365 52.2547 75.301L54.9511 75.9396C59.4258 67.4048 61.95 59.0442 61.95 50.7997C61.95 43.3681 60.9748 35.9945 60.86 28.4467C60.86 25.0792 62.1221 22.002 64.1874 19.6216C66.2527 22.0601 67.5148 25.0792 67.5148 28.4467C67.5148 35.9945 66.4248 43.4261 66.4248 50.7997C66.4248 58.9862 68.949 67.4048 73.4238 75.9396L76.1201 75.301C78.1854 74.8365 79.7917 73.0366 79.7917 70.9465C79.7917 68.6822 77.7264 66.4178 75.3169 66.4178L74.2269 66.592L76.4643 48.4193C77.5543 39.2458 82.8322 30.3627 90.8065 26.3565V91.0933H76.0053C74.9153 97.1895 71.7027 102.705 66.9411 106.073C65.8511 106.886 64.8758 107.873 64.2448 109.15C63.499 107.815 62.5237 106.886 61.4337 106.073ZM44.5673 68.7402C45.1984 66.3017 46.9768 64.2116 49.1568 62.9342L47.3784 47.9548C46.7473 43.31 44.8542 39.1297 41.9857 35.7042V68.6822H44.5673V68.7402ZM52.0826 86.5646C52.0826 84.3003 52.4268 82.2101 52.8858 80.12L50.8205 79.6555C47.78 78.6685 45.4279 76.288 44.6247 73.2108H42.1005V86.5646H52.0826ZM61.8927 86.5646C61.8927 83.8358 59.8274 81.3973 57.1311 81.107C56.6721 82.8488 56.3279 84.6486 56.3279 86.5646H61.8927ZM61.8927 91.0933H56.959C57.7621 94.6349 59.4832 97.8282 61.8927 100.615V91.0933ZM68.8916 77.1008C66.9985 73.5592 65.22 69.8434 64.13 66.0114C63.04 69.9014 61.2616 73.5592 59.3684 77.1008C61.2616 77.5653 62.8679 78.8426 64.13 80.2941C65.3922 78.8426 66.9985 77.5653 68.8916 77.1008ZM71.9322 86.5646C71.9322 84.6486 71.588 82.8488 71.129 81.107C68.4327 81.4553 66.3674 83.8358 66.3674 86.5646H71.9322ZM71.3011 91.0933H66.3674V100.615C68.7769 97.8282 70.498 94.6349 71.3011 91.0933ZM86.2743 86.5646V73.2108H83.7501C82.947 76.288 80.5948 78.6685 77.5543 79.6555L75.489 80.12C75.948 82.2101 76.2922 84.3003 76.2922 86.5646H86.2743ZM86.2743 68.7402V35.7622C83.4059 39.1297 81.3406 43.31 80.8817 48.0129L79.1033 62.9923C81.3406 64.2696 83.0617 66.3598 83.6927 68.7983H86.2743V68.7402Z" fill="black"/>
</svg>
