<svg width="195" height="480" viewBox="0 0 195 480" fill="none" xmlns="http://www.w3.org/2000/svg">
<path d="M61.5 0L41.5 177.5C41.5 177.5 35.6973 179.749 35 183C34.4431 185.597 37 189.5 37 189.5L52 193.5L146.5 205.5L163.5 207C163.5 207 167.841 203.925 168 201C168.189 197.529 162.5 194 162.5 194L195 0H61.5Z" fill="#345BCE"/>
<path d="M52 193.5L0 358C0 358 55 365.5 52 463C50.1598 465.059 47.5416 465.292 47 468C46.3096 471.452 49.6986 474.89 52 475.5C55.5613 476.444 58.8969 474.015 60 470.5C60.9076 467.608 58 463 58 463L79.5 278L58 274L60 267.5L85 270L90.5 233.5C90.5 233.5 85.4983 226.448 87 222C88.5765 217.331 92.5849 214.64 97.5 215C102.733 215.383 107.004 219.253 107 224.5C106.996 228.836 100.5 233.5 100.5 233.5L95.5 272L120.5 275.5V282.5L100.5 280L70.5 465.5C70.5 465.5 67.0668 468.064 66.5 470.5C65.5426 474.614 68.282 479.273 72.5 479.5C75.9715 479.687 78.2889 477.259 79.5 474C80.6742 470.84 78.4017 468.847 78 465.5C95.5 376 154.5 378 154.5 378L146.5 205.5L52 193.5Z" fill="#345BCE"/>
<path d="M52 193.5L0 358C0 358 55 365.5 52 463C50.1598 465.059 47.5416 465.292 47 468C46.3096 471.452 49.6986 474.89 52 475.5C55.5613 476.444 58.8969 474.015 60 470.5C60.9076 467.608 58 463 58 463L79.5 278L58 274L60 267.5L85 270L90.5 233.5C90.5 233.5 85.4983 226.448 87 222C88.5765 217.331 92.5849 214.64 97.5 215C102.733 215.383 107.004 219.253 107 224.5C106.996 228.836 100.5 233.5 100.5 233.5L95.5 272L120.5 275.5V282.5L100.5 280L70.5 465.5C70.5 465.5 67.0668 468.064 66.5 470.5C65.5426 474.614 68.282 479.273 72.5 479.5C75.9715 479.687 78.2889 477.259 79.5 474C80.6742 470.84 78.4017 468.847 78 465.5C95.5 376 154.5 378 154.5 378L146.5 205.5L52 193.5Z" fill="#FFD700"/>
</svg>
